<svg width="50" height="48" viewBox="0 0 60 58" fill="none" xmlns="http://www.w3.org/2000/svg">
<path d="M32.0635 8.84211H21.8064C20.3245 8.84211 18.9034 9.46315 17.8555 10.5686L15.5412 13.0103C14.4933 14.1158 13.0722 14.7368 11.5904 14.7368H6.92056C3.83477 14.7368 1.33325 17.376 1.33325 20.6316V50.1053C1.33325 53.3609 3.83477 56 6.92056 56H46.0317C49.1176 56 51.619 53.3609 51.619 50.1053V29.4737M43.2381 8.84211H60M51.619 17.6842V0M26.4761 47.1579C32.6476 47.1579 37.6508 41.8795 37.6508 35.3684C37.6508 28.8574 32.6476 23.579 26.4761 23.579C20.3046 23.579 15.3015 28.8574 15.3015 35.3684C15.3015 41.8795 20.3046 47.1579 26.4761 47.1579Z" stroke="black" stroke-width="2.304" stroke-linecap="round" stroke-linejoin="round"/>
</svg>
