<svg width="57" height="41" viewBox="0 0 57 41" fill="none" xmlns="http://www.w3.org/2000/svg">
<path d="M11.6156 0.646191C11.5578 0.78688 10.3836 4.75428 9.01691 9.4814C2.45294 31.9634 0.123783 39.8841 0.0275371 40.1092C-0.0687089 40.3484 0.797505 40.3624 16.3894 40.3624H32.8474L33.1554 39.6308C33.3094 39.2369 33.5404 38.5194 33.6751 38.0551C33.7906 37.5768 33.9446 37.1547 34.0216 37.0844C34.0794 37.0281 34.7723 36.8593 35.5423 36.6905C37.1592 36.3669 39.6616 35.4946 41.0091 34.7912C41.5288 34.5098 42.01 34.3128 42.1063 34.341C42.1833 34.3691 44.012 35.7338 46.1486 37.3658L50.037 40.3624H53.0398H56.0427L54.7915 39.4057C51.6346 37.0422 45.3787 32.1744 45.3787 32.0759C45.3787 32.0056 45.6481 31.7101 45.9754 31.4147C47.6693 29.8812 49.6135 27.3629 50.6337 25.3791C52.8473 21.0741 53.4441 15.2637 52.0389 11.9997C50.8069 9.20002 47.9388 6.92088 44.166 5.7813C42.7608 5.34517 40.4701 4.93718 40.2776 5.0638C40.1814 5.14821 38.8339 9.0312 38.8339 9.27037C38.8339 9.34071 38.9687 9.41106 39.1419 9.41106C39.3152 9.41106 40.0851 9.62209 40.8358 9.8894C44.2429 11.0852 46.0716 13.7442 45.9176 17.3037L45.8599 18.6261L40.7396 18.5839C36.6588 18.5558 35.6001 18.5839 35.5231 18.7246C35.4653 18.8231 34.0601 22.9452 32.4047 27.8834L29.3633 36.8452H27.5539C26.2257 36.8452 25.7445 36.803 25.7445 36.6623C25.7445 36.5779 26.014 35.7901 26.3219 34.9459C26.6492 34.0877 26.8994 33.328 26.8994 33.2577C26.8994 33.1733 26.3797 33.0326 25.7445 32.9482C23.1266 32.5824 20.7589 31.3584 19.681 29.8108C18.757 28.4743 18.4105 27.1378 18.3913 24.9289C18.3913 23.8456 18.449 22.8186 18.526 22.6498C18.6415 22.3684 18.757 22.3544 24.7435 22.3262L30.8455 22.284L31.4615 20.5958C31.808 19.6672 32.0775 18.8653 32.0967 18.7949C32.0967 18.7387 29.3633 18.6965 26.0332 18.6965C21.0092 18.6965 19.9697 18.6683 19.9697 18.4995C19.9697 18.1478 20.9514 16.3892 21.8176 15.2074C24.4355 11.5917 28.7666 9.42513 34.2141 9.01713L35.6193 8.91865L36.3508 6.87867C36.755 5.75317 37.1015 4.81056 37.1015 4.78242C37.1015 4.68394 33.6366 4.92311 32.0197 5.12007C28.1891 5.61248 24.6858 6.6395 22.2796 7.97604C18.0255 10.3396 14.6954 14.2648 13.04 18.8794C11.9813 21.8479 12.6165 19.3296 15.2344 10.3537C16.7743 5.0638 18.0448 0.660259 18.0448 0.561779C18.0448 0.449226 17.1208 0.407021 14.8879 0.407021C12.039 0.407021 11.7118 0.435158 11.6156 0.646191ZM12.4048 20.5536C12.347 20.6661 12.2893 20.6239 12.2893 20.4691C12.27 20.3144 12.3278 20.23 12.3855 20.2862C12.4433 20.3284 12.4625 20.4551 12.4048 20.5536ZM44.8012 22.5373C44.8012 22.9875 43.4152 25.6746 42.5683 26.8704C41.0091 29.0792 38.6992 30.9082 36.37 31.7664C35.6001 32.0478 35.5423 32.0618 35.6386 31.8227C35.6963 31.682 36.3893 29.5717 37.1977 27.1378C38.0062 24.7038 38.6992 22.6217 38.7377 22.5232C38.8532 22.2699 44.8012 22.284 44.8012 22.5373ZM11.5193 25.0837C11.4616 27.5035 11.7118 28.7838 12.5973 30.5565C13.2517 31.8227 15.0804 33.8345 16.2739 34.5942C17.3326 35.2555 19.7965 36.184 21.3172 36.4935C22.2796 36.6905 21.7791 36.6905 15.0612 36.6201C11.0381 36.5638 7.72722 36.5216 7.68872 36.4935C7.65022 36.4654 11.5386 22.9171 11.5771 22.9171C11.5963 22.9171 11.5578 23.8879 11.5193 25.0837Z" fill="white"/>
</svg>
