<svg width="45" height="40" viewBox="0 0 59 53" fill="none" xmlns="http://www.w3.org/2000/svg">
<path d="M29.1844 0.151489C37.2074 0.151489 44.4692 3.10941 49.7217 7.89024C54.9789 12.6711 58.2316 19.2748 58.2316 26.5664C58.2316 33.8623 54.9789 40.4661 49.7217 45.2426C44.4645 50.0234 37.2027 52.9813 29.1844 52.9813C21.1614 52.9813 13.8996 50.0234 8.64713 45.2426C3.38989 40.4661 0.137207 33.8623 0.137207 26.5664C0.137207 19.2705 3.38989 12.6668 8.64713 7.89024C13.8996 3.10941 21.1614 0.151489 29.1844 0.151489ZM26.0594 22.2714L19.9701 21.2869C20.4759 19.5242 21.4451 18.1742 22.8823 17.2326C24.3196 16.2954 26.3525 15.8225 28.9811 15.8225C32.0021 15.8225 34.1816 16.3341 35.5338 17.3573C36.8764 18.3848 37.5525 19.6746 37.5525 21.2267C37.5525 22.1338 37.2783 22.9593 36.7299 23.6945C36.1862 24.4297 35.3636 25.0789 34.262 25.6335C35.1555 25.8355 35.8411 26.072 36.3138 26.3386C37.0845 26.7685 37.6802 27.3403 38.1057 28.0411C38.5312 28.7462 38.7486 29.5888 38.7486 30.5648C38.7486 31.7901 38.3988 32.9681 37.6896 34.0988C36.9805 35.2209 35.9687 36.0894 34.6402 36.6999C33.3117 37.3104 31.5672 37.6113 29.4066 37.6113C27.3028 37.6113 25.6386 37.3835 24.4236 36.932C23.2038 36.4806 22.2063 35.8228 21.4167 34.9544C20.6319 34.0859 20.0315 32.9896 19.6108 31.674L26.0547 30.8915C26.31 32.0738 26.6976 32.8993 27.2319 33.355C27.7614 33.8107 28.4374 34.0429 29.2601 34.0429C30.1205 34.0429 30.8344 33.7549 31.4112 33.1787C31.9832 32.6026 32.2716 31.8374 32.2716 30.8786C32.2716 29.9027 31.9974 29.146 31.4443 28.6043C30.8959 28.0712 30.1441 27.8003 29.1986 27.8003C28.6975 27.8003 28.0025 27.9121 27.1184 28.1443L27.4541 23.9567C27.8039 24.004 28.0781 24.0298 28.2814 24.0298C29.1135 24.0298 29.8085 23.7848 30.3664 23.2989C30.9242 22.8131 31.2032 22.237 31.2032 21.5706C31.2032 20.9257 30.9904 20.4184 30.5791 20.0401C30.1583 19.6574 29.5815 19.464 28.8535 19.464C28.097 19.464 27.4872 19.6703 27.0144 20.0874C26.5463 20.5087 26.2249 21.2353 26.0594 22.2714ZM47.7691 9.66585C43.013 5.34075 36.4415 2.66658 29.1844 2.66658C21.9273 2.66658 15.3558 5.34075 10.5997 9.66585C5.84358 13.991 2.90293 19.967 2.90293 26.5664C2.90293 33.1659 5.84358 39.1419 10.5997 43.467C15.3558 47.7921 21.9273 50.4663 29.1844 50.4663C36.4415 50.4663 43.013 47.7921 47.7691 43.467C52.5252 39.1419 55.4659 33.1659 55.4659 26.5664C55.4659 19.967 52.5252 13.991 47.7691 9.66585Z" fill="#323033" fill-opacity="0.55"/>
</svg>