<svg width="45" height="40" viewBox="0 0 59 54" fill="none" xmlns="http://www.w3.org/2000/svg">
<path d="M29.1844 0.623535C37.2074 0.623535 44.4692 3.58146 49.7217 8.36228C54.9789 13.1431 58.2316 19.7468 58.2316 27.0385C58.2316 34.3344 54.9789 40.9381 49.7217 45.7146C44.4645 50.4955 37.2027 53.4534 29.1844 53.4534C21.1614 53.4534 13.8996 50.4955 8.64713 45.7146C3.38989 40.9381 0.137207 34.3344 0.137207 27.0385C0.137207 19.7425 3.38989 13.1388 8.64713 8.36228C13.8996 3.58146 21.1614 0.623535 29.1844 0.623535ZM38.9756 37.8942H19.3933C19.6155 36.1401 20.301 34.4849 21.4357 32.9371C22.575 31.3851 24.7025 29.5579 27.8323 27.4469C29.747 26.1528 30.9715 25.1769 31.5105 24.5019C32.0447 23.8312 32.3142 23.1949 32.3142 22.593C32.3142 21.9438 32.0494 21.3849 31.5199 20.9206C30.9904 20.4562 30.3238 20.2284 29.5201 20.2284C28.688 20.2284 28.0072 20.4691 27.4777 20.9463C26.9482 21.4279 26.5936 22.2705 26.414 23.4829L19.885 23.0014C20.1403 21.3247 20.613 20.022 21.2938 19.0847C21.9793 18.1432 22.9391 17.4295 24.1777 16.9265C25.4259 16.4235 27.1468 16.1741 29.3452 16.1741C31.6428 16.1741 33.4252 16.4106 34.7017 16.8921C35.9734 17.365 36.9805 18.0959 37.7085 19.0805C38.4413 20.0693 38.8054 21.1742 38.8054 22.3952C38.8054 23.6936 38.3846 24.9361 37.5478 26.1227C36.711 27.305 35.1839 28.6077 32.9713 30.0265C31.657 30.8519 30.7777 31.4324 30.338 31.7634C29.8936 32.0944 29.3735 32.5244 28.7731 33.0618H38.9661V37.8942H38.9756ZM47.7691 10.1379C43.013 5.8128 36.4415 3.13863 29.1844 3.13863C21.9273 3.13863 15.3558 5.8128 10.5997 10.1379C5.84358 14.463 2.90293 20.439 2.90293 27.0385C2.90293 33.6379 5.84358 39.6139 10.5997 43.939C15.3558 48.2641 21.9273 50.9383 29.1844 50.9383C36.4415 50.9383 43.013 48.2641 47.7691 43.939C52.5252 39.6139 55.4659 33.6379 55.4659 27.0385C55.4659 20.439 52.5252 14.463 47.7691 10.1379Z" fill="#0C173B"/>
</svg>
