<svg width="45" height="40" viewBox="0 0 59 53" fill="none" xmlns="http://www.w3.org/2000/svg">
<path fill-rule="evenodd" clip-rule="evenodd" d="M29.1844 0.095459C37.2042 0.095459 44.4671 3.05269 49.724 7.83214C54.9797 12.6116 58.2316 19.2164 58.2316 26.5104C58.2316 33.8034 54.9797 40.4081 49.724 45.1886C44.4671 49.9681 37.2042 52.9253 29.1844 52.9253C21.1635 52.9253 13.9006 49.9681 8.64486 45.1886C3.38913 40.4081 0.137207 33.8034 0.137207 26.5104C0.137207 19.2164 3.38913 12.6116 8.64486 7.83214C13.9006 3.05269 21.1635 0.095459 29.1844 0.095459ZM18.791 24.5097C20.8776 25.6024 22.2358 26.5114 23.8527 28.1324C28.0464 21.992 32.5986 18.5911 38.5192 13.7631L39.0979 13.5599H45.5757C36.8899 22.3325 30.1557 29.5656 24.1261 40.143C20.9865 34.0386 18.1885 29.8257 11.9274 25.9191L18.791 24.5097Z" fill="#0C173B"/>
</svg>